<svg xmlns="http://www.w3.org/2000/svg" width="160" height="49" viewBox="0 0 160 49">
  <g id="Group_3513" data-name="Group 3513" transform="translate(-1004 -1505)">
    <g id="Group_3512" data-name="Group 3512" transform="translate(1762.089 35.554)">
      <g id="Group_3509" data-name="Group 3509" transform="translate(-739.482 1478.294)">
        <path id="Path_1985" data-name="Path 1985" d="M-712.2,1521.683a22.813,22.813,0,0,1-2.062,3.851c-1.34,2.04-3.228,4.579-5.567,4.6-2.079.019-2.613-1.353-5.434-1.338s-3.41,1.362-5.49,1.343c-2.339-.022-4.128-2.315-5.468-4.354-3.746-5.7-4.138-12.395-1.828-15.952a8.289,8.289,0,0,1,6.667-4.009c2.479,0,4.038,1.36,6.088,1.36,1.989,0,3.2-1.362,6.067-1.362a8.091,8.091,0,0,1,6.1,3.22A6.979,6.979,0,0,0-712.2,1521.683Z" transform="translate(739.482 -1498.391)" fill="#09847a"/>
        <g id="Group_3508" data-name="Group 3508" transform="translate(13.113 0)">
          <path id="Path_1986" data-name="Path 1986" d="M-685.943,1483.448a6.959,6.959,0,0,0,1.546-5.155,7.517,7.517,0,0,0-4.854,2.611,6.459,6.459,0,0,0-1.586,5.028A6.346,6.346,0,0,0-685.943,1483.448Z" transform="translate(690.912 -1478.294)" fill="#09847a"/>
        </g>
      </g>
      <g id="Group_3511" data-name="Group 3511" transform="translate(-706.154 1487.399)">
        <g id="Group_3510" data-name="Group 3510" transform="translate(0)">
          <path id="Path_1987" data-name="Path 1987" d="M-610.671,1520.358l-5.366,15.8h2.457l1.6-4.85h5.2l1.647,4.85h2.525l-5.389-15.8Zm1.273,2.6c.181.705.377,1.437.628,2.229l1.446,4.188h-4.116l1.426-4.215C-609.8,1524.473-609.59,1523.734-609.4,1522.955Z" transform="translate(616.037 -1520.107)" fill="#09847a"/>
          <path id="Path_1988" data-name="Path 1988" d="M-557.025,1535.524a4.471,4.471,0,0,0-3.8,1.823l-.1-1.571h-2.186l.013.2c.064.979.091,2.056.091,3.6v12.175h2.39v-5.682a4.2,4.2,0,0,0,3.267,1.4,4.926,4.926,0,0,0,3.621-1.539,6.53,6.53,0,0,0,1.6-4.6,6.357,6.357,0,0,0-1.388-4.2A4.546,4.546,0,0,0-557.025,1535.524Zm-.6,1.978c2.13,0,3.084,1.974,3.084,3.929,0,2.522-1.217,4.089-3.174,4.089a2.9,2.9,0,0,1-2.815-2.218,3.052,3.052,0,0,1-.085-.774v-1.922a3.6,3.6,0,0,1,.076-.59c.012-.065.025-.131.034-.194A3.026,3.026,0,0,1-557.621,1537.5Z" transform="translate(577.396 -1531.178)" fill="#09847a"/>
          <path id="Path_1989" data-name="Path 1989" d="M-511.444,1535.524a4.473,4.473,0,0,0-3.8,1.823l-.1-1.571h-2.185l.012.2c.065.98.092,2.056.092,3.6v12.175h2.39v-5.682a4.194,4.194,0,0,0,3.265,1.4,4.933,4.933,0,0,0,3.623-1.539,6.538,6.538,0,0,0,1.6-4.6,6.358,6.358,0,0,0-1.389-4.2A4.545,4.545,0,0,0-511.444,1535.524Zm-.595,1.978c2.129,0,3.083,1.974,3.083,3.929,0,2.522-1.217,4.089-3.174,4.089a2.9,2.9,0,0,1-2.815-2.218,3.052,3.052,0,0,1-.084-.774v-1.922a3.526,3.526,0,0,1,.076-.592c.012-.064.024-.129.035-.192A3.024,3.024,0,0,1-512.039,1537.5Z" transform="translate(544.121 -1531.178)" fill="#09847a"/>
          <path id="Path_1990" data-name="Path 1990" d="M-453.285,1526.371c-2.23-.864-2.945-1.543-2.945-2.8,0-1.057.84-2.122,2.716-2.122a5.432,5.432,0,0,1,2.805.7l.2.125.674-1.994-.133-.078a6.926,6.926,0,0,0-3.48-.781c-3.048,0-5.176,1.8-5.176,4.374,0,2.077,1.333,3.528,4.194,4.569,2.028.758,2.783,1.534,2.783,2.866,0,1.507-1.165,2.442-3.038,2.442a6.543,6.543,0,0,1-3.444-.976l-.207-.133-.641,2.041.118.078a8.181,8.181,0,0,0,4.039,1.038c4.107,0,5.564-2.5,5.564-4.649C-449.254,1528.865-450.421,1527.5-453.285,1526.371Z" transform="translate(501.378 -1519.427)" fill="#09847a"/>
          <path id="Path_1991" data-name="Path 1991" d="M-418.014,1526.377l-2.344.736v1.985h-1.716v1.91h1.716v5.85a4.474,4.474,0,0,0,.827,3.032,3.064,3.064,0,0,0,2.312.908,5.621,5.621,0,0,0,1.847-.285l.134-.047-.114-1.913-.229.07a3.592,3.592,0,0,1-1.112.129c-.926,0-1.321-.586-1.321-1.961v-5.782h2.883v-1.91h-2.883Z" transform="translate(474.441 -1524.501)" fill="#09847a"/>
          <path id="Path_1992" data-name="Path 1992" d="M-389.778,1535.524c-3.344,0-5.679,2.5-5.679,6.067,0,3.465,2.259,5.885,5.5,5.885h.022c2.736,0,5.679-1.906,5.679-6.09a6.039,6.039,0,0,0-1.523-4.227A5.318,5.318,0,0,0-389.778,1535.524Zm-.069,1.887c2.15,0,3.129,2.1,3.129,4.044,0,2.4-1.336,4.135-3.174,4.135h-.023c-1.812,0-3.128-1.71-3.128-4.065C-393.044,1539.477-392.055,1537.411-389.848,1537.411Z" transform="translate(455.01 -1531.178)" fill="#09847a"/>
          <path id="Path_1993" data-name="Path 1993" d="M-342.959,1535.635l-.143-.036a2.293,2.293,0,0,0-.595-.075,3.409,3.409,0,0,0-3,1.924l-.07-1.672h-2.144l.013.2c.064.946.09,2.008.09,3.441l-.022,7.807h2.39v-6.09a6.16,6.16,0,0,1,.066-.927,2.641,2.641,0,0,1,2.514-2.408,6.141,6.141,0,0,1,.641.04l.256.026Z" transform="translate(421.028 -1531.178)" fill="#09847a"/>
          <path id="Path_1994" data-name="Path 1994" d="M-321.585,1535.44c-3.181,0-5.4,2.542-5.4,6.182,0,3.5,2.21,5.77,5.632,5.77a9.163,9.163,0,0,0,3.784-.726l.144-.065-.459-1.781-.2.081a7.4,7.4,0,0,1-2.994.536,3.322,3.322,0,0,1-3.579-3.465l7.713.023.031-.153a5.312,5.312,0,0,0,.072-1C-316.844,1538.351-318.086,1535.44-321.585,1535.44Zm-.159,1.818a2.358,2.358,0,0,1,1.754.669,3.4,3.4,0,0,1,.823,2.225h-5.45C-324.395,1538.772-323.532,1537.258-321.744,1537.258Z" transform="translate(405.026 -1531.117)" fill="#09847a"/>
        </g>
      </g>
    </g>
    <g id="Rectangle_1417" data-name="Rectangle 1417" transform="translate(1004 1505)" fill="none" stroke="#09847a" stroke-width="2">
      <rect width="160" height="49" rx="8" stroke="none"/>
      <rect x="1" y="1" width="158" height="47" rx="7" fill="none"/>
    </g>
  </g>
</svg>
