<svg xmlns="http://www.w3.org/2000/svg" width="94.382" height="107.669" viewBox="0 0 94.382 107.669">
  <g id="Group_3504" data-name="Group 3504" transform="translate(-693.194 -639.519)">
    <path id="Path_1947" data-name="Path 1947" d="M748.63,747.189h38.945l-15.281-24.382-9.509-1.7Z" opacity="0.3"/>
    <path id="Path_1948" data-name="Path 1948" d="M775.383,747.189l-13.376-4.624-13.376,4.624,3.633-93.8H772.08l-2.988,44.13Z" fill="#ce9972"/>
    <path id="Path_1949" data-name="Path 1949" d="M703.383,733.317l45.248,13.872,3.633-93.8-45.248-13.872Z" fill="#f4c8a4"/>
    <path id="Path_1950" data-name="Path 1950" d="M762.007,742.565l13.376,4.624H748.63Z" fill="#895628"/>
    <path id="Path_1951" data-name="Path 1951" d="M752.264,653.391l-45.248-13.872h15.853l49.211,13.872Z" fill="#895628"/>
    <path id="Path_1952" data-name="Path 1952" d="M722.869,639.519l49.211,13.872H752.264l-29.394-9.011Z" opacity="0.3"/>
    <ellipse id="Ellipse_310" data-name="Ellipse 310" cx="1.486" cy="3.138" rx="1.486" ry="3.138" transform="translate(715.603 649.758)" opacity="0.3"/>
    <ellipse id="Ellipse_311" data-name="Ellipse 311" cx="1.486" cy="3.138" rx="1.486" ry="3.138" transform="translate(738.062 656.033)" opacity="0.3"/>
    <g id="Group_3495" data-name="Group 3495" opacity="0.3">
      <path id="Path_1953" data-name="Path 1953" d="M735.7,699.58l-.005.076a.61.61,0,0,0,.015-.08Z"/>
      <path id="Path_1954" data-name="Path 1954" d="M735.868,699.181c.152-.484.031-.134-.012-.048l0,.041a3.858,3.858,0,0,1-.174.408l.011,0v-.022c.009-.01.01,0,.009.018.007,0,.008.019-.016.1v-.018l-.123.428-.025-.016a3.175,3.175,0,0,1-.164.573l.913-3.247a.185.185,0,0,0-.018-.075.215.215,0,0,0-.053-.147.181.181,0,0,0-.269-.039l.021-.029-.086,0-.906.563-2.063,2.08L731.2,701.3l-.29.287c-.005.012-.017.013-.02-.005l-.172-.524-.55-1.679-1.1-3.357-.22-.53-.163-.576-.249-.8a2.632,2.632,0,0,0-.2-.538.921.921,0,0,0-.231-.263.358.358,0,0,0-.552.123c-.2.4-.4.807-.592,1.2-.156.31-.313.61-.472.887l.027.061a1.243,1.243,0,0,1-.221.359l-1.586,3.236c-.012.016-.014.062-.043.045a.85.85,0,0,1-.048-.08l-.429-.787q-.5-.914-.98-1.8l-1.852-3.468-.154-.31-.286-.536c-.295-.556-.594-1.066-.806-1.52a1.316,1.316,0,0,0-.139-.233.9.9,0,0,0-.411-.225.258.258,0,0,0-.182.044c-.043.036-.029.05-.046.077a1.542,1.542,0,0,0-.064.216,4.858,4.858,0,0,0,.258,1.43q.158.661.313,1.314l-.016-.047.147.579c0,.025,0,.028-.009.009.193.653.405,1.683.582,2.483l-.016-.047c.871,3.579,1.7,7,2.547,10.47.035.446.461.929.768.809l.687-.149a7.589,7.589,0,0,1,1.189-.106,6.717,6.717,0,0,1,5.315,2.4.271.271,0,0,0,.165.113l.216.074.446.142c.178.053.38.111.6.164a2.592,2.592,0,0,0,.447.074.241.241,0,0,0,.26-.109c.087.042.07-.067.109-.093a.35.35,0,0,0,.049-.176c.408-1.346.756-2.732.816-2.966l-.185.446c.412-1.563.665-2.249,1-3.6l-.01.081a12.317,12.317,0,0,1,.72-2.4l.005,0a1.077,1.077,0,0,1,.065-.219l-.134.346c.049-.229.079-.439.159-.735.023-.059.039-.073.049-.073l.194-.727.094-.2a1.916,1.916,0,0,1,.152-.743c-.109.188.054-.313.01-.258l.065-.135c.093-.354.266-1.024.287-1.205C736.507,697.548,736.022,698.849,735.868,699.181Z"/>
      <path id="Path_1955" data-name="Path 1955" d="M736.22,698.753l-.06.227.079-.208C736.277,698.643,736.253,698.685,736.22,698.753Z"/>
      <path id="Path_1956" data-name="Path 1956" d="M735.856,699.133l0-.05C735.835,699.161,735.841,699.162,735.856,699.133Z"/>
    </g>
    <g id="Group_3496" data-name="Group 3496" opacity="0.3">
      <path id="Path_1957" data-name="Path 1957" d="M731.1,683.534c-13.851.405-14.857-28.506-14.893-29.737a1,1,0,1,1,1.995-.058c.008.28.968,28.057,12.837,27.709,6.878-.2,7.935-15.778,7.761-21.764a1.021,1.021,0,0,1,.967-1.072h0a1.022,1.022,0,0,1,1.028,1.014C740.822,660.589,741.368,683.233,731.1,683.534Z"/>
    </g>
    <g id="Group_3497" data-name="Group 3497">
      <path id="Path_1958" data-name="Path 1958" d="M730.135,681.8c-13.886,0-14.046-27.728-14.046-28.908a1,1,0,0,1,2,0c0,.268.147,26.908,12.046,26.908,6.9,0,8.411-14.9,8.413-20.634a1,1,0,0,1,1-1h0a1,1,0,0,1,1,1C740.548,660.094,740.43,681.8,730.135,681.8Z" fill="#382414"/>
    </g>
    <g id="Group_3498" data-name="Group 3498">
      <path id="Path_1959" data-name="Path 1959" d="M761.507,742.589l-2.162-43.876,3.083-45.356,1,.068-3.083,45.3,2.162,43.817Z" fill="#895628"/>
    </g>
    <g id="Group_3503" data-name="Group 3503">
      <path id="Path_1960" data-name="Path 1960" d="M740.985,744.91l-4.795-11.739-1.739-20.027-12.872-3.75-5.288,14.239,3.638,14.821,12.81,5.8Z" opacity="0.3"/>
      <path id="Path_1961" data-name="Path 1961" d="M740.985,744.91,728.7,741.145l-8.773,3.765L723,706.748h2.911l5.745,26.892Z" fill="#ce9972"/>
      <path id="Path_1962" data-name="Path 1962" d="M719.93,744.91l7.817-1.057,13.238,1.057L728.7,741.145Z" fill="#895628"/>
      <path id="Path_1963" data-name="Path 1963" d="M696.264,697.013,723,706.748l-3.07,38.162-26.736-9.735Z" fill="#f4c8a4"/>
      <path id="Path_1964" data-name="Path 1964" d="M725.911,706.748H723l-26.736-9.735h1.409Z" fill="#895628"/>
      <path id="Path_1965" data-name="Path 1965" d="M725.911,706.748H723l-26.736-9.735h1.409Z" opacity="0.3"/>
      <g id="Group_3499" data-name="Group 3499" opacity="0.3">
        <path id="Path_1966" data-name="Path 1966" d="M712.637,723.224l0,.044a.337.337,0,0,0,.008-.046Z"/>
        <path id="Path_1967" data-name="Path 1967" d="M712.737,722.994c.088-.279.018-.077-.007-.028l0,.024a2.1,2.1,0,0,1-.1.235h.006v-.013c.005-.005.006,0,.005.011s.005.011-.009.056v-.01l-.071.247-.015-.009a1.83,1.83,0,0,1-.094.33l.526-1.873a.1.1,0,0,0-.01-.043.123.123,0,0,0-.031-.085.1.1,0,0,0-.155-.023l.012-.016h-.049l-.523.326-1.19,1.2-.993.9-.168.165c0,.007-.009.008-.011,0l-.1-.3-.317-.968-.634-1.937-.127-.306-.094-.332-.144-.462a1.492,1.492,0,0,0-.117-.31.529.529,0,0,0-.133-.152.219.219,0,0,0-.177-.043.216.216,0,0,0-.142.114l-.341.692c-.09.179-.181.352-.272.512l.015.035a.689.689,0,0,1-.128.207L706.239,723c-.007.009-.008.035-.025.025a.378.378,0,0,1-.027-.045l-.248-.454-.565-1.041-1.069-2-.089-.179-.164-.309c-.171-.321-.343-.616-.465-.877a.732.732,0,0,0-.081-.135.516.516,0,0,0-.237-.13.156.156,0,0,0-.1.026c-.024.021-.017.029-.026.044a.772.772,0,0,0-.037.125,2.8,2.8,0,0,0,.149.825l.18.758-.009-.027.085.334c0,.014,0,.016-.005.005.111.377.233.971.335,1.432l-.009-.027c.5,2.064.983,4.038,1.469,6.039.02.258.266.536.444.467l.4-.086a4.41,4.41,0,0,1,.686-.061,3.873,3.873,0,0,1,3.066,1.384.16.16,0,0,0,.095.065l.125.043.257.082c.1.03.219.063.349.094a1.455,1.455,0,0,0,.258.043.141.141,0,0,0,.15-.063c.05.024.04-.039.063-.054a.2.2,0,0,0,.027-.1c.236-.777.437-1.576.472-1.711l-.107.257c.237-.9.383-1.3.575-2.077l-.006.046a7.138,7.138,0,0,1,.415-1.386l0,0a.7.7,0,0,1,.037-.127l-.077.2c.029-.132.046-.253.092-.424.013-.034.022-.042.028-.042l.112-.419.055-.115a1.079,1.079,0,0,1,.087-.428c-.063.108.031-.181.006-.149l.037-.078c.054-.2.154-.591.166-.7C713.106,722.052,712.826,722.8,712.737,722.994Z"/>
        <path id="Path_1968" data-name="Path 1968" d="M712.94,722.747l-.034.131.045-.12C712.973,722.684,712.959,722.708,712.94,722.747Z"/>
        <path id="Path_1969" data-name="Path 1969" d="M712.73,722.966v-.029C712.718,722.983,712.722,722.983,712.73,722.966Z"/>
      </g>
      <ellipse id="Ellipse_312" data-name="Ellipse 312" cx="0.888" cy="1.875" rx="0.888" ry="1.875" transform="translate(701.096 705.645)" opacity="0.3"/>
      <ellipse id="Ellipse_313" data-name="Ellipse 313" cx="0.888" cy="1.875" rx="0.888" ry="1.875" transform="translate(714.516 709.394)" opacity="0.3"/>
      <g id="Group_3500" data-name="Group 3500" opacity="0.3">
        <path id="Path_1970" data-name="Path 1970" d="M710.355,725.826c-8.276.243-8.877-17.032-8.9-17.768a.6.6,0,1,1,1.192-.034c0,.167.578,16.764,7.67,16.556,4.109-.12,4.741-9.428,4.637-13a.611.611,0,0,1,.578-.641h0a.611.611,0,0,1,.614.606C716.165,712.117,716.491,725.647,710.355,725.826Z"/>
      </g>
      <g id="Group_3501" data-name="Group 3501">
        <path id="Path_1971" data-name="Path 1971" d="M709.779,724.793c-8.3,0-8.392-16.568-8.392-17.273a.6.6,0,1,1,1.195,0c0,.16.087,16.078,7.2,16.078,4.12,0,5.026-8.9,5.027-12.329a.6.6,0,0,1,.6-.6h0a.6.6,0,0,1,.6.6C716,711.821,715.931,724.793,709.779,724.793Z" fill="#382414"/>
      </g>
      <g id="Group_3502" data-name="Group 3502">
        <path id="Path_1972" data-name="Path 1972" d="M728.3,742.666l-3.095-8.1-1.408-27.761h1.419l1.4,27.575,3.007,7.771Z" fill="#895628"/>
      </g>
    </g>
  </g>
</svg>
