<svg xmlns="http://www.w3.org/2000/svg" width="182.355" height="124.129" viewBox="0 0 182.355 124.129">
  <g id="Group_4065" data-name="Group 4065" transform="translate(-1194.056 -915.759)">
    <path id="Path_3025" data-name="Path 3025" d="M1293.844,1043.267h13.677l-2.27-1.7,4.237-1.337-7.879-4.755,75.2-20.828a.8.8,0,0,0,.138-1.528l-39.467-16.014-131.017,23.717,41.648,15.782,33.681,8.373Z" transform="translate(-1.039 -6.81)" opacity="0.3"/>
    <path id="Path_3026" data-name="Path 3026" d="M1320.971,922.757l-20.66,2.562v68.448l33.269,12.724,45.762-7.027c4.38-11.191,2.647-26.831,1.7-29.659l-6.777-20.323a24.8,24.8,0,0,0-12.121-13.956l-5.513-2.906Z" transform="translate(-8.894 -0.586)" fill="#1595bc"/>
    <g id="Group_4059" data-name="Group 4059" transform="translate(1336.486 981.012)">
      <ellipse id="Ellipse_344" data-name="Ellipse 344" cx="13.594" cy="12.113" rx="13.594" ry="12.113" transform="translate(0 19.771) rotate(-46.651)" fill="#262626"/>
      <ellipse id="Ellipse_345" data-name="Ellipse 345" cx="6.748" cy="6.013" rx="6.748" ry="6.013" transform="translate(9.406 19.235) rotate(-46.651)" fill="#bababa"/>
      <ellipse id="Ellipse_346" data-name="Ellipse 346" cx="3.397" cy="3.026" rx="3.397" ry="3.026" transform="translate(13.878 18.848) rotate(-46.651)" fill="#fff"/>
    </g>
    <g id="Group_4060" data-name="Group 4060" transform="translate(1229.889 998.696)">
      <ellipse id="Ellipse_347" data-name="Ellipse 347" cx="13.594" cy="12.113" rx="13.594" ry="12.113" transform="translate(0 19.771) rotate(-46.651)" fill="#262626"/>
      <ellipse id="Ellipse_348" data-name="Ellipse 348" cx="6.748" cy="6.013" rx="6.748" ry="6.013" transform="translate(9.406 19.235) rotate(-46.651)" fill="#bababa"/>
      <ellipse id="Ellipse_349" data-name="Ellipse 349" cx="3.397" cy="3.026" rx="3.397" ry="3.026" transform="translate(13.878 18.848) rotate(-46.651)" fill="#fff"/>
    </g>
    <g id="Group_4061" data-name="Group 4061" transform="translate(1197.206 986.531)">
      <ellipse id="Ellipse_350" data-name="Ellipse 350" cx="13.594" cy="12.113" rx="13.594" ry="12.113" transform="translate(0 19.771) rotate(-46.651)" fill="#262626"/>
      <ellipse id="Ellipse_351" data-name="Ellipse 351" cx="6.748" cy="6.013" rx="6.748" ry="6.013" transform="translate(9.406 19.235) rotate(-46.651)" fill="#bababa"/>
      <ellipse id="Ellipse_352" data-name="Ellipse 352" cx="3.397" cy="3.026" rx="3.397" ry="3.026" transform="translate(13.878 18.848) rotate(-46.651)" fill="#fff"/>
    </g>
    <path id="Path_3027" data-name="Path 3027" d="M1229.072,1030.634l7.466-1.322v-2.246l-7.694,1.362a1.333,1.333,0,0,0-1.147,1.225h0A1.087,1.087,0,0,0,1229.072,1030.634Z" transform="translate(-2.816 -9.317)" fill="#868787"/>
    <path id="Path_3028" data-name="Path 3028" d="M1303.457,915.759l-109.4,14.924v74.465l33.269,14.937,7.9-1.125c-.009-.194-.029-.385-.029-.583a14.792,14.792,0,0,1,12.832-14.313,11.2,11.2,0,0,1,12.828,11.248l78.262-11.138V926.489Z" fill="#236868"/>
    <path id="Path_3029" data-name="Path 3029" d="M1194.056,1006.511l33.268,14.937V943.507l-33.268-11.46Z" transform="translate(0 -1.363)" opacity="0.3"/>
    <path id="Path_1939" data-name="Path 1939" d="M1281.737,987.3l-6.763-16.88,10.521,8.8,5.261-11.313,5.283,9.666,10.538-12.142-6.77,19.036-1.7,4.773a.464.464,0,0,1-.507.311l-.031-.008a16.461,16.461,0,0,0-13.591,2.146.358.358,0,0,1-.525-.1l-.013-.029Z" transform="translate(-6.773 -4.158)" fill="#ffbfbe"/>
    <path id="Path_3030" data-name="Path 3030" d="M1195.632,1003.562l30.381,13.641V952.547l-30.381-10.466Z" transform="translate(-0.132 -2.203)" fill="#e2e2e2"/>
    <path id="Path_3031" data-name="Path 3031" d="M1208.362,1013.028l7.052,3.166v-1.282l-7.052-2.429Z" transform="translate(-1.198 -8.096)" fill="#333"/>
    <g id="Group_4064" data-name="Group 4064" transform="translate(1248.03 994.414)">
      <path id="Path_3032" data-name="Path 3032" d="M1252.961,1036.985l20.677,10.088,24.1-3.43V1042.1l4.15-.564v-24.381l-20.677-7.113-4.15.562v-6.2l-8.427-2.8-14.258,2-.027,19.4-1.386.2Z" transform="translate(-1252.961 -1001.599)" fill="#f4c8a4"/>
      <path id="Path_3033" data-name="Path 3033" d="M1296.392,1018.948l7.4-1-20.677-7.137-7.4,1Z" transform="translate(-1254.865 -1002.37)" fill="#f4c8a4"/>
      <path id="Path_3034" data-name="Path 3034" d="M1305.679,1018.573l-7.4,1.006v24.381l7.4-1.005Z" transform="translate(-1256.754 -1003.02)" fill="#ce9972"/>
      <path id="Path_3035" data-name="Path 3035" d="M1298.281,1028l7.4,6.149v9.59l-4.15.564Z" transform="translate(-1256.754 -1003.81)" opacity="0.3"/>
      <path id="Path_3036" data-name="Path 3036" d="M1299.624,1029.209l-24.1,3.43v16.745l24.1-3.43Z" transform="translate(-1254.849 -1003.91)" fill="#ce9972"/>
      <path id="Path_3037" data-name="Path 3037" d="M1277.961,1004.659l-14.218,2.025v18.359l14.218-2.025Z" transform="translate(-1253.863 -1001.855)" fill="#ce9972"/>
      <path id="Path_3038" data-name="Path 3038" d="M1299.625,1029.209l-10.832,8.888a1.526,1.526,0,0,1-1.634.192l-11.633-5.651,12.659,6.5a1.472,1.472,0,0,0,1.708-.265Z" transform="translate(-1254.849 -1003.91)" opacity="0.3"/>
      <path id="Path_3039" data-name="Path 3039" d="M1252.961,1038.958l20.677,10.088V1032.3l-20.677-7.137Z" transform="translate(-1252.961 -1003.572)" fill="#f4c8a4"/>
      <path id="Path_3040" data-name="Path 3040" d="M1254.5,1033.824l8.468-3.4v-23.8l-8.468-2.85Z" transform="translate(-1253.089 -1001.782)" fill="#f4c8a4"/>
      <path id="Path_3041" data-name="Path 3041" d="M1273.637,1031.988l24.1-3.412-20.677-7.137-24.1,3.412Z" transform="translate(-1252.961 -1003.26)" fill="#f4c8a4"/>
      <g id="Group_4062" data-name="Group 4062" transform="translate(9.88 24.988)">
        <path id="Path_3042" data-name="Path 3042" d="M1263.743,1028.87v15.2l.916.447v-15.335Z" transform="translate(-1263.743 -1028.87)" fill="#f9eee5"/>
      </g>
      <g id="Group_4063" data-name="Group 4063" transform="translate(9.88 21.077)">
        <path id="Path_3043" data-name="Path 3043" d="M1286.344,1024.6l-22.6,3.929.91.292,22.71-3.891Z" transform="translate(-1263.743 -1024.602)" fill="#f9eee5"/>
      </g>
      <path id="Path_3044" data-name="Path 3044" d="M1277.961,1004.658l-6.39,8.888a.626.626,0,0,1-.964.193l-6.864-5.651,7.469,6.5c.334.291.741.184,1.008-.264Z" transform="translate(-1253.863 -1001.855)" opacity="0.3"/>
      <path id="Path_3045" data-name="Path 3045" d="M1262.929,1006.4l14.258-2-8.427-2.8-14.258,2Z" transform="translate(-1253.089 -1001.599)" fill="#f4c8a4"/>
      <path id="Path_3046" data-name="Path 3046" d="M1277.961,1021.439l-14.218,2.013h20.05Z" transform="translate(-1253.863 -1003.26)" opacity="0.3"/>
      <path id="Path_3047" data-name="Path 3047" d="M1296.688,1019.122v7.637l-17.428-6.016v-7.618Z" transform="translate(-1255.162 -1002.564)" fill="#f4c8a4"/>
      <path id="Path_3048" data-name="Path 3048" d="M1285.092,1022.756l3.571-6.4-9.4-3.235v7.618Z" transform="translate(-1255.162 -1002.564)" opacity="0.3"/>
      <path id="Path_3049" data-name="Path 3049" d="M1280.566,1046.823l-2.41.343v1.675l2.41-.343Z" transform="translate(-1255.069 -1005.385)" fill="#f9eee5"/>
      <path id="Path_3050" data-name="Path 3050" d="M1280.566,1044.99l-2.41.343v.837l2.41-.343Z" transform="translate(-1255.069 -1005.232)" fill="#f9eee5"/>
      <path id="Path_3051" data-name="Path 3051" d="M1296.336,1020.54v.833l-5.36-1.829v-.814Z" transform="translate(-1256.143 -1003.033)" fill="#f9eee5"/>
      <path id="Path_3052" data-name="Path 3052" d="M1300.11,1018.508l.5-.068-20.65-7.128-.484.074Z" transform="translate(-1255.18 -1002.412)" opacity="0.3"/>
      <path id="Path_3053" data-name="Path 3053" d="M1305.633,1021.893l-2.41.343v1.675l2.41-.343Z" transform="translate(-1257.168 -1003.298)" fill="#f9eee5"/>
      <path id="Path_3054" data-name="Path 3054" d="M1305.633,1024.949l-2.41.343v.2l2.41-.343Z" transform="translate(-1257.168 -1003.554)" fill="#f9eee5"/>
      <path id="Path_3055" data-name="Path 3055" d="M1305.633,1019.691l-2.41.343v1.675l2.41-.343Z" transform="translate(-1257.168 -1003.114)" fill="#f9eee5"/>
      <path id="Path_3056" data-name="Path 3056" d="M1262.817,1008.43v.833l-2-.695v-.814Z" transform="translate(-1253.618 -1002.115)" fill="#f9eee5"/>
      <path id="Path_3057" data-name="Path 3057" d="M1262.817,1009.545v.833l-2-.694v-.814Z" transform="translate(-1253.618 -1002.208)" fill="#f9eee5"/>
      <path id="Path_3058" data-name="Path 3058" d="M1262.817,1010.661v.833l-2-.695v-.814Z" transform="translate(-1253.618 -1002.301)" fill="#f9eee5"/>
      <path id="Path_3059" data-name="Path 3059" d="M1262.817,1018.233v1.974l-2-.695v-1.955Z" transform="translate(-1253.618 -1002.935)" fill="#f9eee5"/>
    </g>
    <line id="Line_14" data-name="Line 14" x2="30.381" y2="11.428" transform="translate(1195.5 947.781)" fill="none" stroke="#c6c6c6" stroke-miterlimit="10" stroke-width="1"/>
    <line id="Line_15" data-name="Line 15" x2="30.381" y2="11.428" transform="translate(1195.5 977.439)" fill="none" stroke="#c6c6c6" stroke-miterlimit="10" stroke-width="1"/>
    <line id="Line_16" data-name="Line 16" x2="30.381" y2="11.428" transform="translate(1195.5 985.789)" fill="none" stroke="#c6c6c6" stroke-miterlimit="10" stroke-width="1"/>
    <line id="Line_17" data-name="Line 17" x2="30.381" y2="11.428" transform="translate(1195.5 993.499)" fill="none" stroke="#c6c6c6" stroke-miterlimit="10" stroke-width="1"/>
    <line id="Line_18" data-name="Line 18" x2="30.381" y2="11.428" transform="translate(1195.5 969.797)" fill="none" stroke="#c6c6c6" stroke-miterlimit="10" stroke-width="1"/>
    <line id="Line_19" data-name="Line 19" x2="30.381" y2="11.428" transform="translate(1195.5 960.855)" fill="none" stroke="#c6c6c6" stroke-miterlimit="10" stroke-width="1"/>
    <path id="Path_3060" data-name="Path 3060" d="M1379.827,974.033l-5.434-16.294a19.88,19.88,0,0,0-9.718-11.19l-4.421-2.331v39.987l20.193-4.3A20.7,20.7,0,0,0,1379.827,974.033Z" transform="translate(-13.912 -2.382)" fill="#b8f2ff"/>
    <path id="Path_3061" data-name="Path 3061" d="M1362.98,990.106a2.149,2.149,0,0,1,.849-.577,3.268,3.268,0,0,1,.968-.126q.974-.1,1.966-.131l.021.083q-.9.386-1.817.7a3.22,3.22,0,0,1-.924.29,2.314,2.314,0,0,1-1.042-.16Z" transform="translate(-14.14 -6.153)" fill="#333"/>
    <path id="Path_3062" data-name="Path 3062" d="M1228.56,1027.444l-2.5-1.147v-2.5l2.5,1.147Z" transform="translate(-2.679 -9.044)" fill="#ef6d6b"/>
    <path id="Path_3063" data-name="Path 3063" d="M1198.129,1013.808l-2.5-1.147v-2.5l2.5,1.147Z" transform="translate(-0.132 -7.902)" fill="#ef6d6b"/>
  </g>
</svg>
