<svg xmlns="http://www.w3.org/2000/svg" width="119.998" height="104.327" viewBox="0 0 119.998 104.327">
  <g id="Group_4049" data-name="Group 4049" transform="translate(-642.461 -623.114)">
    <path id="Path_3024" data-name="Path 3024" d="M704.546,726.541l34.584-19.715a1.007,1.007,0,0,0-.444-1.881l-39.326-2.154-50.866,24.451Z" transform="translate(-0.033 -0.215)" opacity="0.3"/>
    <path id="Path_2980" data-name="Path 2980" d="M704.631,722.821H644.612a2.148,2.148,0,0,1-1.754-3.388l57.173-80.857h59.9a2.21,2.21,0,0,1,1.8,3.485Z" fill="#232323"/>
    <path id="Path_2981" data-name="Path 2981" d="M700.357,720.482h-50.9a2.651,2.651,0,0,1-2.164-4.181l52.562-74.344a1.314,1.314,0,0,1,1.073-.555H756.75a1.314,1.314,0,0,1,1.073,2.072l-52.7,74.542A5.834,5.834,0,0,1,700.357,720.482Z" fill="#236868"/>
    <path id="Path_2982" data-name="Path 2982" d="M761.812,639.637l-55.185,80.279a6.572,6.572,0,0,1-5.52,2.849l-58.3-.928.179.5a7.682,7.682,0,0,0,7.236,5.1h51a6.561,6.561,0,0,0,5.362-2.78l54.415-77.144A8.258,8.258,0,0,0,761.812,639.637Z" fill="#232323"/>
    <path id="Path_1939" data-name="Path 1939" d="M691.447,683.162l4.677-15.17,3.1,8.841,10.887-8.86-1.562,8.875,15.557-8.857-16.67,15.187-4.18,3.808a.641.641,0,0,1-.586.194l-.019-.011c-2.6-1.716-7.02-1.716-12.034,0-.229.079-.387.008-.354-.157l.007-.027Z" fill="#ffbfbe"/>
    <path id="Path_2983" data-name="Path 2983" d="M736.117,644.64H718.282a2.429,2.429,0,0,1-1.968-3.854h25.56l-.282.54A6.18,6.18,0,0,1,736.117,644.64Z" fill="#232323"/>
    <path id="Path_2984" data-name="Path 2984" d="M747.134,662.023l-1.2,1.84a.666.666,0,0,0-.118.378h0a.668.668,0,0,0,1.213.385l1.2-1.557c.079-.113.225-.286.225-.423l.047-.2A.78.78,0,0,0,747.134,662.023Z"/>
    <path id="Path_2985" data-name="Path 2985" d="M757.538,647.3l-7.661,11.144a.67.67,0,0,0-.117.378h0a.667.667,0,0,0,1.212.384l7.661-10.86a.672.672,0,0,0,.122-.385v-.283A.667.667,0,0,0,757.538,647.3Z"/>
    <circle id="Ellipse_328" data-name="Ellipse 328" cx="11.431" cy="11.431" r="11.431" transform="translate(686.461 643.797)" fill="#45db8f"/>
    <g id="_1" data-name=" 1" transform="translate(692.461 649.576)">
      <path id="Path_10" data-name="Path 10" d="M5.457,0,4.465.992,8.221,4.748H0V6.166H8.221L4.465,9.922l.992.992,5.457-5.457Z" transform="translate(10.914) rotate(90)" fill="#fff"/>
    </g>
    <g id="_2" data-name=" 2" transform="translate(694.461 633.119)" opacity="0.703">
      <path id="Path_10-2" data-name="Path 10" d="M3.686,0l-.67.67L5.552,3.207H0v.957H5.552L3.015,6.7l.67.67L7.371,3.686Z" transform="translate(7.371) rotate(90)" fill="#fff"/>
    </g>
    <g id="_3" data-name=" 3" transform="translate(695.461 623.114)" opacity="0.296">
      <path id="Path_10-3" data-name="Path 10" d="M2.688,0,2.2.489l1.85,1.85H0v.7H4.049L2.2,4.887l.489.489L5.376,2.688Z" transform="translate(5.376) rotate(90)" fill="#fff"/>
    </g>
  </g>
</svg>
