<svg xmlns="http://www.w3.org/2000/svg" width="174" height="49" viewBox="0 0 174 49">
  <g id="Group_3514" data-name="Group 3514" transform="translate(-810 -1505)">
    <g id="Group_3507" data-name="Group 3507" transform="translate(352 211.852)">
      <g id="Group_3506" data-name="Group 3506" transform="translate(474.001 1305)">
        <path id="Path_1975" data-name="Path 1975" d="M950.348,586.21h-7.664v2.274h5.435c-.269,3.189-2.922,4.549-5.426,4.549a6.074,6.074,0,0,1,.007-12.148,5.9,5.9,0,0,1,4.1,1.644l1.592-1.649a8.1,8.1,0,0,0-5.771-2.275,8.355,8.355,0,1,0,.121,16.708,7.356,7.356,0,0,0,7.747-7.595,6.819,6.819,0,0,0-.139-1.508Z" transform="translate(-904.693 -574.908)" fill="#09847a" fill-rule="evenodd"/>
        <path id="Path_1976" data-name="Path 1976" d="M1041.937,616.024a3.267,3.267,0,1,1-3.073,3.249,3.088,3.088,0,0,1,3.073-3.249Zm-.031-2.109a5.37,5.37,0,1,0,5.388,5.388,5.306,5.306,0,0,0-5.388-5.388Z" transform="translate(-989.737 -604.26)" fill="#09847a" fill-rule="evenodd"/>
        <path id="Path_1977" data-name="Path 1977" d="M1112.269,616.024a3.267,3.267,0,1,1-3.073,3.249,3.088,3.088,0,0,1,3.073-3.249Zm-.031-2.109a5.37,5.37,0,1,0,5.389,5.388,5.306,5.306,0,0,0-5.389-5.388Z" transform="translate(-1048.201 -604.26)" fill="#09847a" fill-rule="evenodd"/>
        <path id="Path_1978" data-name="Path 1978" d="M1182.534,616.053a3.037,3.037,0,0,1,2.868,3.272,3,3,0,0,1-2.9,3.253,3.051,3.051,0,0,1-2.971-3.234,3.1,3.1,0,0,1,3-3.292Zm-.209-2.1a5.376,5.376,0,0,0-.05,10.741,3.547,3.547,0,0,0,2.945-1.3v1.059a2.694,2.694,0,0,1-2.823,2.962,2.977,2.977,0,0,1-2.749-1.912l-2.064.863a5.166,5.166,0,0,0,4.83,3.163c2.87,0,5.057-1.808,5.057-5.6v-9.649h-2.251v.91a3.8,3.8,0,0,0-2.9-1.232Z" transform="translate(-1106.663 -604.287)" fill="#09847a" fill-rule="evenodd"/>
        <path id="Path_1979" data-name="Path 1979" d="M1275.771,615.937a2.141,2.141,0,0,1,1.987,1.147l-4.808,2.01a2.982,2.982,0,0,1,2.821-3.157Zm-.094-2.065a5.078,5.078,0,0,0-5.009,5.363,5.193,5.193,0,0,0,5.27,5.388,5.447,5.447,0,0,0,4.5-2.357l-1.856-1.235a3.005,3.005,0,0,1-2.631,1.478,2.763,2.763,0,0,1-2.634-1.627l7.2-2.988-.373-.875a4.863,4.863,0,0,0-4.466-3.147Z" transform="translate(-1184.384 -604.224)" fill="#09847a" fill-rule="evenodd"/>
        <rect id="Rectangle_1413" data-name="Rectangle 1413" width="2.365" height="15.828" transform="translate(82.614 4.253)" fill="#09847a"/>
        <rect id="Rectangle_1414" data-name="Rectangle 1414" width="2.365" height="15.828" transform="translate(114.324 4.253)" fill="#09847a"/>
        <rect id="Rectangle_1415" data-name="Rectangle 1415" width="2.365" height="15.828" transform="translate(101.782 4.253)" fill="#09847a"/>
        <path id="Path_1980" data-name="Path 1980" d="M1362.514,581.9h5.721a5.057,5.057,0,0,1,5.042,5.042h0a5.057,5.057,0,0,1-5.042,5.042h-5.721V581.9Zm2.365,2.365v5.354h3.356a2.677,2.677,0,0,0,0-5.354Z" transform="translate(-1260.731 -577.643)" fill="#09847a" fill-rule="evenodd"/>
        <path id="Path_1981" data-name="Path 1981" d="M1541.612,629.457l6.848-15.583h-2.583l-6.848,15.583Z" transform="translate(-1407.461 -604.225)" fill="#09847a" fill-rule="evenodd"/>
        <path id="Path_1982" data-name="Path 1982" d="M1532.854,625.89l-5.28-12.016h2.583l3.642,8.287h-.945Z" transform="translate(-1397.939 -604.225)" fill="#09847a" fill-rule="evenodd"/>
        <path id="Path_1983" data-name="Path 1983" d="M1471.152,620.672h2.365V614.98c.37-5.871-7.073-7.252-9.89-3.02l1.9,1.277c1.377-2.408,5.307-1.854,5.565.726a10.48,10.48,0,0,0-3.622-.422,3.823,3.823,0,0,0-3.625,3.232,3.923,3.923,0,0,0,.808,3.052,4.471,4.471,0,0,0,4.441.949,4.069,4.069,0,0,0,2.055-1.381v1.278Zm0-4.575a3.561,3.561,0,0,1-2.618,2.616c-2.735.745-3.415-3.7.649-3.087A10.135,10.135,0,0,1,1471.152,616.1Z" transform="translate(-1344.783 -600.592)" fill="#09847a" fill-rule="evenodd"/>
        <path id="Path_1984" data-name="Path 1984" d="M760.993,581.236a2.5,2.5,0,0,0,.322-.149l14.791-8.1-3.506-3.5-11.607,11.747Zm15.768-8.6L773.1,568.98l3.654-3.7,5.033,2.745c1.24.676.606,1.522,0,1.853l-5.029,2.753Zm-.658-7.708-14.788-8.068a1.489,1.489,0,0,0-.516-.162l11.8,11.78,3.507-3.55Zm-16.171-8.084,12.161,12.143-12.1,12.249a1.529,1.529,0,0,1-.546-1.338c-.006-1.2-.1-20.307-.109-21.74A1.4,1.4,0,0,1,759.932,556.841Z" transform="translate(-759.335 -556.695)" fill="#09847a" fill-rule="evenodd"/>
      </g>
    </g>
    <g id="Rectangle_1416" data-name="Rectangle 1416" transform="translate(810 1505)" fill="none" stroke="#09847a" stroke-width="2">
      <rect width="174" height="49" rx="8" stroke="none"/>
      <rect x="1" y="1" width="172" height="47" rx="7" fill="none"/>
    </g>
  </g>
</svg>
