<svg xmlns="http://www.w3.org/2000/svg" width="13.999" height="13.999" viewBox="0 0 13.999 13.999">
  <path id="Path_1974" data-name="Path 1974" d="M-744.131,244h-11.931a1.022,1.022,0,0,0-1.032,1.009v11.98a1.022,1.022,0,0,0,1.032,1.01h11.931a1.024,1.024,0,0,0,1.036-1.01v-11.98A1.023,1.023,0,0,0-744.131,244Zm-8.811,11.929h-2.078v-6.681h2.078Zm-1.039-7.593a1.2,1.2,0,0,1-1.2-1.2,1.2,1.2,0,0,1,1.2-1.2,1.2,1.2,0,0,1,1.2,1.2A1.2,1.2,0,0,1-753.98,248.335Zm8.815,7.593h-2.076V252.68c0-.775-.013-1.771-1.079-1.771s-1.245.844-1.245,1.716v3.3h-2.074v-6.681h1.99v.913h.028a2.181,2.181,0,0,1,1.964-1.079c2.1,0,2.491,1.383,2.491,3.182Z" transform="translate(757.094 -244)" fill="#fff"/>
</svg>
