<svg xmlns="http://www.w3.org/2000/svg" width="221.576" height="69.632" viewBox="0 0 221.576 69.632">
  <g id="Group_3505" data-name="Group 3505" transform="translate(-816.941 -357.207)">
    <path id="Path_1940" data-name="Path 1940" d="M1044.5,371.7l-5.422-14.471,8.435,8.435,4.218-8.453,4.236,8.467,8.449-8.449-5.428,14.487-1.361,3.632a.316.316,0,0,1-.431.175,12.7,12.7,0,0,0-10.9,0,.315.315,0,0,1-.431-.175Z" transform="translate(-54.113 0)" fill="#ffbfbe"/>
    <path id="Path_1941" data-name="Path 1941" d="M866.344,425.292l-5.426-2.023,11.617-31.161a3.36,3.36,0,0,1,3.146-2.187h.007a3.363,3.363,0,0,1,3.147,2.214c2.619,7.239,7.7,30.94,7.915,31.945l-5.662,1.211c-.04-.187-3.13-14.6-5.679-24.315Zm11.624-31.179-.011.029.011-.029" transform="translate(-10.713 -7.969)" fill="#fff"/>
    <rect id="Rectangle_1373" data-name="Rectangle 1373" width="14.582" height="5.79" transform="translate(856.59 402.52) rotate(-1.519)" fill="#fff"/>
    <path id="Path_1942" data-name="Path 1942" d="M963.74,425.344l-5.426-2.023,11.617-31.161a3.361,3.361,0,0,1,3.146-2.187h0a3.365,3.365,0,0,1,3.149,2.212c2.619,7.241,7.7,30.942,7.916,31.947l-5.662,1.211c-.04-.187-3.13-14.6-5.679-24.315Zm11.624-31.178-.011.029.011-.029" transform="translate(-34.439 -7.982)" fill="#fff"/>
    <rect id="Rectangle_1374" data-name="Rectangle 1374" width="5.79" height="15.771" transform="translate(929.867 405.75) rotate(-80.626)" fill="#fff"/>
    <path id="Path_1943" data-name="Path 1943" d="M932,431.962a3.018,3.018,0,0,1-2.656-1.577L917.784,409.41l-9.644,17.379a3.042,3.042,0,0,1-5.69-1.2l-3.71-41.863,5.768-.511,2.918,32.93,7.705-13.885a3.046,3.046,0,0,1,2.66-1.566h.011a3.041,3.041,0,0,1,2.655,1.579l10.523,19.084,9.85-41.613,5.634,1.334-11.49,48.546a3.023,3.023,0,0,1-2.553,2.314,3.1,3.1,0,0,1-.417.028m2.414-4.375,0,.005,0-.005m-19.034-22.529.006.012Z" transform="translate(-19.926 -5.489)" fill="#fff"/>
    <rect id="Rectangle_1375" data-name="Rectangle 1375" width="5.79" height="48.865" transform="translate(816.941 376.182) rotate(-1.385)" fill="#fff"/>
    <path id="Path_1944" data-name="Path 1944" d="M851.376,432.6l-19.293-23.1a4.3,4.3,0,0,1,.079-5.634l20.08-22.708,4.338,3.836-19.244,21.763L855.82,428.89Z" transform="translate(-3.442 -5.835)" fill="#fff"/>
    <path id="Path_1945" data-name="Path 1945" d="M1036.465,431.539l-26.3-23.255a3.582,3.582,0,0,1,.268-5.581c6.952-5.044,13.429-12.049,12.231-16.334-.968-3.467-9.944-4.594-18.893-3.829l4.926,47.212-5.759.6-5.2-49.854a3.106,3.106,0,0,1,2.709-3.426c5.809-.742,24.972-2.37,27.8,7.738,2.228,7.973-6.534,16.424-12.221,20.922L1040.3,427.2Zm-32.973-51.645v0" transform="translate(-44.037 -4.7)" fill="#fff"/>
    <path id="Path_1946" data-name="Path 1946" d="M1095.555,425.732l-15.231-22.239a3.422,3.422,0,0,1,1.553-5.11c5.891-2.362,11.816-6.292,11.739-9.23-.053-2.049-5.373-4.449-12.109-5.629l-5.073,35.393-5.732-.821L1076.162,380a3.091,3.091,0,0,1,3.41-2.616,53.939,53.939,0,0,1,9.818,2.153c6.538,2.175,9.908,5.359,10.016,9.462.167,6.43-7.451,11.126-12.683,13.585l13.611,19.873Zm-11.521-21.975,0,0,0,0m-5.156-20.62h0" transform="translate(-61.816 -4.911)" fill="#fff"/>
    <rect id="Rectangle_1376" data-name="Rectangle 1376" width="5.791" height="27.648" transform="translate(994.026 382.408)" fill="#fff"/>
  </g>
</svg>
