<svg xmlns="http://www.w3.org/2000/svg" width="15.255" height="15.255" viewBox="0 0 15.255 15.255">
  <path id="Path_3064" data-name="Path 3064" d="M7.627,0a7.629,7.629,0,0,0-2.78,14.733,7.328,7.328,0,0,1,.026-2.19c.139-.6.894-3.791.894-3.791A2.753,2.753,0,0,1,5.54,7.618c0-1.061.615-1.852,1.38-1.852A.958.958,0,0,1,7.886,6.84a15.359,15.359,0,0,1-.632,2.54,1.107,1.107,0,0,0,1.129,1.378c1.356,0,2.4-1.429,2.4-3.493A3.011,3.011,0,0,0,7.6,4.162a3.3,3.3,0,0,0-3.444,3.31,2.967,2.967,0,0,0,.568,1.741.228.228,0,0,1,.053.219c-.058.241-.187.759-.212.865-.033.14-.111.169-.255.1A3.419,3.419,0,0,1,2.756,7.444c0-2.406,1.748-4.616,5.04-4.616a4.476,4.476,0,0,1,4.7,4.405c0,2.629-1.657,4.744-3.958,4.744A2.041,2.041,0,0,1,6.792,11.1s-.383,1.456-.475,1.813a8.522,8.522,0,0,1-.948,2A7.628,7.628,0,1,0,7.627,0" fill="#fff"/>
</svg>
